# File created by Blade
# Date/Time:  Fri Jan 16 17:25:32 2015
#---------------------------------------------------------
:version 1.10
:name HOM
:units
  mass 1.0
  length 1.000000
  angle deg
:documentation
     Acclaim Skeleton File
:root
   axis xyz
   order TX TY TZ RX RY RZ
   position 0.000000 0.000000 0.000000
   orientation 0 0 0
:bonedata
   begin
      id 1
      name Spine_dum
      direction 0.000000 1.000000 0.000000
      length 7.170412
      axis 0.0 0.0 0.0 xyz
   end
   begin
      id 2
      name LeftUpLeg_dum
      direction 1.000000 0.000000 0.000000
      length 4.318350
      axis 0.0 0.0 0.0 xyz
   end
   begin
      id 3
      name RightUpLeg_dum
      direction -1.000000 0.000000 0.000000
      length 4.318350
      axis 0.0 0.0 0.0 xyz
   end
   begin
      id 4
      name Spine
      direction 0.000000 1.000000 0.000000
      length 0.000000
      axis 0.0 0.0 0.0 xyz
      dof rx ry rz
   end
   begin
      id 5
      name Spine_dum1
      direction 0.000000 1.000000 0.000000
      length 14.276153
      axis 0.0 0.0 0.0 xyz
   end
   begin
      id 6
      name Spine_dum2
      direction 0.000000 1.000000 0.000000
      length 10.718243
      axis 0.0 0.0 0.0 xyz
   end
   begin
      id 7
      name Spine_dum3
      direction 0.000000 1.000000 0.000000
      length 10.718243
      axis 0.0 0.0 0.0 xyz
   end
   begin
      id 8
      name Head
      direction 0.000000 1.000000 0.000000
      length 4.527550
      axis 0.0 0.0 0.0 xyz
      dof rx ry rz
   end
   begin
      id 9
      name LeftShoulder
      direction 1.000000 0.000000 0.000000
      length 7.058872
      axis 0.0 0.0 -90.0 xyz
      dof rx ry rz
   end
   begin
      id 10
      name LeftArm
      direction 1.000000 0.000000 0.000000
      length 10.955525
      axis 0.0 0.0 -90.0 xyz
      dof rx ry rz
   end
   begin
      id 11
      name LeftForeArm
      direction 1.000000 0.000000 0.000000
      length 8.193716
      axis 0.0 0.0 -90.0 xyz
      dof ry rz rx
   end
   begin
      id 12
      name LeftHand
      direction 0.000000 0.000000 0.000000
      length 0.000000
      axis 0.0 0.0 -90.0 xyz
      dof rx ry rz
   end
   begin
      id 13
      name LeftHand_dum1
      direction 0.000000 0.000000 0.000000
      length 0.000000
      axis 0.0 0.0 -90.0 xyz
   end
   begin
      id 14
      name LeftHand_dum2
      direction 1.000000 0.000000 0.000000
      length 3.937000
      axis 0.0 0.0 -90.0 xyz
   end
   begin
      id 15
      name LeftHandThumb1
      direction 0.000000 0.000000 1.000000
      length 3.937000
      axis 0.0 0.0 -90.0 xyz
      dof rx rz ry
   end
   begin
      id 16
      name RightShoulder
      direction -1.000000 0.000000 0.000000
      length 7.058872
      axis 0.0 0.0 90.0 xyz
      dof rx ry rz
   end
   begin
      id 17
      name RightArm
      direction -1.000000 0.000000 0.000000
      length 10.955525
      axis 0.0 0.0 90.0 xyz
      dof rx ry rz
   end
   begin
      id 18
      name RightForeArm
      direction -1.000000 0.000000 0.000000
      length 8.193716
      axis 0.0 0.0 90.0 xyz
      dof ry rz rx
   end
   begin
      id 19
      name RightHand
      direction 0.000000 0.000000 0.000000
      length 0.000000
      axis 0.0 0.0 90.0 xyz
      dof rx ry rz
   end
   begin
      id 20
      name RightHand_dum1
      direction 0.000000 0.000000 0.000000
      length 0.000000
      axis 0.0 0.0 90.0 xyz
   end
   begin
      id 21
      name RightHand_dum2
      direction -1.000000 0.000000 0.000000
      length 3.937000
      axis 0.0 0.0 90.0 xyz
   end
   begin
      id 22
      name RightHandThumb1
      direction 0.000000 0.000000 1.000000
      length 3.937000
      axis 0.0 0.0 90.0 xyz
      dof rx rz ry
   end
   begin
      id 23
      name LeftUpLeg
      direction 0.000000 -1.000000 0.000000
      length 17.323638
      axis 0.0 0.0 0.0 xyz
      dof rx ry rz
   end
   begin
      id 24
      name LeftLeg
      direction 0.000000 -1.000000 0.000000
      length 16.270368
      axis 0.0 0.0 0.0 xyz
      dof rx ry rz
   end
   begin
      id 25
      name LeftFoot
      direction 0.000000 -0.258819 0.965926
      length 4.922846
      axis 15.0 0.0 0.0 xyz
      dof rx ry rz
   end
   begin
      id 26
      name LeftToeBase
      direction 0.000000 0.000000 1.000000
      length 2.952750
      axis 0.0 0.0 0.0 xyz
      dof rx ry rz
   end
   begin
      id 27
      name RightUpLeg
      direction 0.000000 -1.000000 0.000000
      length 17.323638
      axis 0.0 0.0 0.0 xyz
      dof rx ry rz
   end
   begin
      id 28
      name RightLeg
      direction 0.000000 -1.000000 0.000000
      length 16.270368
      axis 0.0 0.0 0.0 xyz
      dof rx ry rz
   end
   begin
      id 29
      name RightFoot
      direction 0.000000 -0.258819 0.965926
      length 4.922846
      axis 15.0 0.0 0.0 xyz
      dof rx ry rz
   end
   begin
      id 30
      name RightToeBase
      direction 0.000000 0.000000 1.000000
      length 2.952750
      axis 0.0 0.0 0.0 xyz
      dof rx ry rz
   end
:hierarchy
   begin
      root Spine_dum LeftUpLeg_dum RightUpLeg_dum
      Spine_dum Spine
      LeftUpLeg_dum LeftUpLeg
      RightUpLeg_dum RightUpLeg
      Spine Spine_dum1 Spine_dum2 Spine_dum3
      Spine_dum1 Head
      Spine_dum2 LeftShoulder
      Spine_dum3 RightShoulder
      LeftShoulder LeftArm
      LeftArm LeftForeArm
      LeftForeArm LeftHand
      LeftHand LeftHand_dum1 LeftHand_dum2
      LeftHand_dum1 LeftHandThumb1
      RightShoulder RightArm
      RightArm RightForeArm
      RightForeArm RightHand
      RightHand RightHand_dum1 RightHand_dum2
      RightHand_dum1 RightHandThumb1
      LeftUpLeg LeftLeg
      LeftLeg LeftFoot
      LeftFoot LeftToeBase
      RightUpLeg RightLeg
      RightLeg RightFoot
      RightFoot RightToeBase
   end

# File created by Blade
# Date/Time:  Fri Jan 16 17:25:22 2015
# Frame Rate: 120.000 fps
#------------------------------------------------------
:FULLY-SPECIFIED
:DEGREES
811
root -5.721861 35.250047 -10.844185 -3.652533 -10.474724 -6.184923
Spine 4.491886 1.567492 9.452809
Head 4.740191 6.835782 -4.850669
LeftShoulder -18.665568 16.185740 -16.428412
LeftArm 27.082217 20.359849 -65.474601
LeftForeArm 11.767214 -0.000000 15.432926
LeftHand 0.616887 -0.000000 -7.242465
LeftHandThumb1 -26.253704 0.000000 33.147579
RightShoulder -1.474679 -4.339121 2.712226
RightArm 12.367208 -38.144840 64.558933
RightForeArm -25.594528 -0.000000 23.586003
RightHand 1.175159 -0.000000 7.577811
RightHandThumb1 -24.326973 -0.000000 -32.862282
LeftUpLeg 13.522400 17.488556 8.599679
LeftLeg -8.857483 -0.000000 0.000000
LeftFoot -14.897213 29.872701 -7.403447
LeftToeBase 23.158849 -0.000000 -0.000000
RightUpLeg 8.469857 -3.870551 2.893056
RightLeg -4.113617 -0.000000 0.000000
RightFoot -3.097209 -22.043559 5.212831
RightToeBase 13.786621 -0.000000 -0.000000
812
root -5.720154 35.250154 -10.844983 -3.643150 -10.476415 -6.183438
Spine 4.482528 1.574125 9.460536
Head 4.742907 6.838141 -4.847477
LeftShoulder -18.667982 16.188436 -16.425741
LeftArm 27.078335 20.349359 -65.520290
LeftForeArm 11.834670 -0.000000 15.452604
LeftHand 0.622183 -0.000000 -7.215050
LeftHandThumb1 -26.253704 0.000000 33.147579
RightShoulder -1.472189 -4.315436 2.703427
RightArm 12.333619 -38.132037 64.595403
RightForeArm -25.586893 -0.000000 23.570269
RightHand 1.133732 -0.000000 7.497794
RightHandThumb1 -24.326973 -0.000000 -32.862282
LeftUpLeg 13.511550 17.486459 8.592318
LeftLeg -8.858527 -0.000000 0.000000
LeftFoot -14.914672 29.873806 -7.422601
LeftToeBase 23.219451 -0.000000 -0.000000
RightUpLeg 8.457680 -3.864834 2.891669
RightLeg -4.113565 -0.000000 0.000000
RightFoot -3.089743 -22.052498 5.224409
RightToeBase 13.759540 -0.000000 -0.000000
813
root -5.719764 35.250463 -10.844724 -3.640501 -10.468373 -6.181280
Spine 4.476850 1.577002 9.458498
Head 4.749246 6.821910 -4.833288
LeftShoulder -18.648049 16.167326 -16.402134
LeftArm 27.068340 20.415433 -65.515618
LeftForeArm 11.800256 -0.000000 15.453877
LeftHand 0.649404 -0.000000 -7.245350
LeftHandThumb1 -26.253704 0.000000 33.147579
RightShoulder -1.458461 -4.328592 2.702274
RightArm 12.327086 -38.102483 64.606146
RightForeArm -25.616744 -0.000000 23.568335
RightHand 1.193602 -0.000000 7.612646
RightHandThumb1 -24.326973 -0.000000 -32.862282
LeftUpLeg 13.509254 17.474738 8.585929
LeftLeg -8.865309 -0.000000 0.000000
LeftFoot -14.897834 29.878381 -7.443861
LeftToeBase 23.126874 -0.000000 -0.000000
RightUpLeg 8.457109 -3.876306 2.888055
RightLeg -4.117179 -0.000000 0.000000
RightFoot -3.089032 -22.051491 5.218281
RightToeBase 13.780660 -0.000000 -0.000000
814
root -5.718931 35.250557 -10.846536 -3.636399 -10.440706 -6.171652
Spine 4.470238 1.570528 9.442535
Head 4.749688 6.799131 -4.805090
LeftShoulder -18.621828 16.178415 -16.374660
LeftArm 27.088554 20.442615 -65.529004
LeftForeArm 11.803821 -0.000000 15.444162
LeftHand 0.678579 0.000000 -7.231723
LeftHandThumb1 -26.253704 0.000000 33.147579
RightShoulder -1.456948 -4.312465 2.705957
RightArm 12.315892 -38.119804 64.619533
RightForeArm -25.609057 -0.000000 23.553867
RightHand 1.191230 -0.000000 7.602093
RightHandThumb1 -24.326973 -0.000000 -32.862282
LeftUpLeg 13.486109 17.447050 8.565750
LeftLeg -8.847799 -0.000000 0.000000
LeftFoot -14.908075 29.885932 -7.436253
LeftToeBase 23.155529 -0.000000 -0.000000
RightUpLeg 8.456904 -3.902933 2.877812
RightLeg -4.133019 -0.000000 0.000000
RightFoot -3.084098 -22.065179 5.203758
RightToeBase 13.802067 -0.000000 -0.000000
815
root -5.719748 35.250796 -10.849061 -3.627862 -10.401493 -6.169702
Spine 4.461632 1.544280 9.431092
Head 4.747964 6.794930 -4.777769
LeftShoulder -18.617847 16.151894 -16.357941
LeftArm 27.070358 20.446673 -65.561497
LeftForeArm 11.860033 -0.000000 15.456583
LeftHand 0.685650 -0.000000 -7.208566
LeftHandThumb1 -26.253704 0.000000 33.147579
RightShoulder -1.437956 -4.310688 2.708305
RightArm 12.306647 -38.114128 64.634917
RightForeArm -25.613262 0.000000 23.558643
RightHand 1.187215 -0.000000 7.615804
RightHandThumb1 -24.326973 -0.000000 -32.862282
LeftUpLeg 13.452370 17.413450 8.558201
LeftLeg -8.826997 -0.000000 0.000000
LeftFoot -14.907772 29.877432 -7.420429
LeftToeBase 23.147830 -0.000000 -0.000000
RightUpLeg 8.449674 -3.930636 2.877551
RightLeg -4.136096 -0.000000 0.000000
RightFoot -3.081824 -22.068111 5.213955
RightToeBase 13.726614 -0.000000 -0.000000
816
root -5.718782 35.250806 -10.849446 -3.621205 -10.390410 -6.164611
Spine 4.449215 1.543517 9.428564
Head 4.754082 6.788337 -4.768160
LeftShoulder -18.601014 16.156687 -16.338059
LeftArm 27.064418 20.460815 -65.586070
LeftForeArm 11.863399 -0.000000 15.465525
LeftHand 0.697475 -0.000000 -7.217124
LeftHandThumb1 -26.253704 0.000000 33.147579
RightShoulder -1.414179 -4.302485 2.705692
RightArm 12.260950 -38.072293 64.677624
RightForeArm -25.659274 -0.000000 23.558671
RightHand 1.238233 0.000000 7.631568
RightHandThumb1 -24.326973 -0.000000 -32.862282
LeftUpLeg 13.440204 17.401375 8.548835
LeftLeg -8.830542 -0.000000 0.000000
LeftFoot -14.907574 29.860098 -7.469492
LeftToeBase 23.103716 -0.000000 -0.000000
RightUpLeg 8.443681 -3.948909 2.871068
RightLeg -4.140865 -0.000000 0.000000
RightFoot -3.073114 -22.072592 5.166998
RightToeBase 13.790412 -0.000000 -0.000000
817
root -5.717457 35.250963 -10.849944 -3.614667 -10.383644 -6.165954
Spine 4.438216 1.553936 9.438176
Head 4.763524 6.786444 -4.759744
LeftShoulder -18.580896 16.148629 -16.323213
LeftArm 27.054629 20.479168 -65.609158
LeftForeArm 11.919475 0.000000 15.461802
LeftHand 0.697323 -0.000000 -7.236214
LeftHandThumb1 -26.253704 0.000000 33.147579
RightShoulder -1.403849 -4.311804 2.696485
RightArm 12.258195 -38.065563 64.687467
RightForeArm -25.694506 0.000000 23.555274
RightHand 1.262541 -0.000000 7.638957
RightHandThumb1 -24.326973 -0.000000 -32.862282
LeftUpLeg 13.432672 17.411925 8.548870
LeftLeg -8.834791 -0.000000 0.000000
LeftFoot -14.887468 29.847880 -7.463048
LeftToeBase 23.058042 -0.000000 -0.000000
RightUpLeg 8.436222 -3.954217 2.871097
RightLeg -4.141603 -0.000000 0.000000
RightFoot -3.070643 -22.078835 5.174954
RightToeBase 13.795004 -0.000000 -0.000000
818
root -5.716195 35.250895 -10.850398 -3.604865 -10.380181 -6.164345
Spine 4.425188 1.581751 9.444736
Head 4.768501 6.756742 -4.751417
LeftShoulder -18.555834 16.145258 -16.306015
LeftArm 27.054797 20.519169 -65.612843
LeftForeArm 11.907858 -0.000000 15.461937
LeftHand 0.696389 0.000000 -7.211417
LeftHandThumb1 -26.253704 0.000000 33.147579
RightShoulder -1.397736 -4.297005 2.691367
RightArm 12.212841 -38.029726 64.735256
RightForeArm -25.773716 0.000000 23.558897
RightHand 1.301245 0.000000 7.578307
RightHandThumb1 -24.326973 -0.000000 -32.862282
LeftUpLeg 13.416757 17.407250 8.537805
LeftLeg -8.825863 -0.000000 0.000000
LeftFoot -14.897664 29.874354 -7.430784
LeftToeBase 23.101986 -0.000000 -0.000000
RightUpLeg 8.430124 -3.935536 2.870680
RightLeg -4.150756 -0.000000 0.000000
RightFoot -3.072261 -22.098593 5.193451
RightToeBase 13.811927 -0.000000 -0.000000
819
root -5.714933 35.251152 -10.850465 -3.600165 -10.380728 -6.159726
Spine 4.415092 1.594555 9.442576
Head 4.778161 6.740107 -4.732138
LeftShoulder -18.545352 16.129615 -16.286326
LeftArm 27.033293 20.526899 -65.643399
LeftForeArm 11.958992 -0.000000 15.464771
LeftHand 0.705705 0.000000 -7.246461
LeftHandThumb1 -26.253704 0.000000 33.147579
RightShoulder -1.363311 -4.299490 2.684573
RightArm 12.179364 -37.998149 64.772645
RightForeArm -25.828078 -0.000000 23.561103
RightHand 1.306051 -0.000000 7.567906
RightHandThumb1 -24.326973 -0.000000 -32.862282
LeftUpLeg 13.412805 17.436049 8.536693
LeftLeg -8.830897 -0.000000 0.000000
LeftFoot -14.898122 29.822212 -7.476946
LeftToeBase 23.099021 -0.000000 -0.000000
RightUpLeg 8.422335 -3.935372 2.863814
RightLeg -4.146633 -0.000000 0.000000
RightFoot -3.071773 -22.084236 5.191666
RightToeBase 13.793532 -0.000000 -0.000000
